<?xml version="1.0" ?><svg height="32" id="icon" viewBox="0 0 32 32" width="32" xmlns="http://www.w3.org/2000/svg"><defs><style>
      .cls-1 {
        fill: none;
      }
    </style></defs><circle cx="10" cy="28" r="2"/><circle cx="24" cy="28" r="2"/><path d="M4.9806,2.8039A1,1,0,0,0,4,2H0V4H3.18L7.0194,23.1961A1,1,0,0,0,8,24H26V22H8.82l-.8-4H26a1,1,0,0,0,.9762-.783L29.2445,7H27.1971l-1.9989,9H7.62Z" transform="translate(0)"/><polygon points="18 6 18 2 16 2 16 6 12 6 12 8 16 8 16 12 18 12 18 8 22 8 22 6 18 6"/><rect class="cls-1" data-name="&lt;Transparent Rectangle&gt;" height="32" id="_Transparent_Rectangle_" width="32"/></svg>