<svg width="80" height="80" viewBox="0 0 80 80" fill="none" xmlns="http://www.w3.org/2000/svg">
<g clip-path="url(#clip0_5_27)">
<path d="M75.5761 40.5397H68.8508V22.368C68.8508 19.95 66.8836 17.983 64.4658 17.983H54.3453V13.6264C54.3453 11.2822 52.4381 9.37515 50.0941 9.37515H4.25125C1.90719 9.37515 0 11.2822 0 13.6264V15.5009C0 16.1483 0.524687 16.6728 1.17188 16.6728C1.81906 16.6728 2.34375 16.1483 2.34375 15.5009V13.6264C2.34375 12.5747 3.19953 11.7189 4.25125 11.7189H50.0939C51.1456 11.7189 52.0014 12.5747 52.0014 13.6264V50.5347H2.34375V20.9955C2.34375 20.3481 1.81906 19.8236 1.17188 19.8236C0.524687 19.8236 0 20.3481 0 20.9955V60.7189C0 63.0631 1.90719 64.9701 4.25125 64.9701H6.94438C7.53359 68.1827 10.3539 70.6247 13.7341 70.6247C17.1142 70.6247 19.9345 68.1827 20.5238 64.9701H39.1655C39.8127 64.9701 40.3373 64.4456 40.3373 63.7983C40.3373 63.1509 39.8127 62.6264 39.1655 62.6264H20.5498C20.0234 59.3389 17.1675 56.8191 13.7339 56.8191C10.3003 56.8191 7.44453 59.3391 6.91813 62.6266H4.25125C3.19953 62.6266 2.34375 61.7708 2.34375 60.7191V52.8784H52.0014V62.6266H44.5406C43.8934 62.6266 43.3688 63.1511 43.3688 63.7984C43.3688 64.4458 43.8934 64.9703 44.5406 64.9703H59.7384C60.3277 68.1828 63.148 70.6248 66.528 70.6248C69.908 70.6248 72.7284 68.1828 73.3177 64.9703H75.6148C78.0328 64.9703 79.9998 63.0031 79.9998 60.5853V44.9637C80 42.5242 78.0155 40.5397 75.5761 40.5397ZM13.7339 59.163C16.2478 59.163 18.293 61.2081 18.293 63.722C18.293 66.2359 16.2478 68.2812 13.7339 68.2812C11.22 68.2812 9.17484 66.2359 9.17484 63.722C9.17484 61.2081 11.2202 59.163 13.7339 59.163ZM66.5281 68.2811C64.0142 68.2811 61.9691 66.2358 61.9691 63.7219C61.9691 61.208 64.0142 59.1628 66.5281 59.1628C69.042 59.1628 71.0872 61.208 71.0872 63.7219C71.0872 66.2358 69.042 68.2811 66.5281 68.2811ZM77.6562 51.3175H74.5377C73.8916 51.3175 73.3658 50.7919 73.3658 50.1456C73.3658 49.4994 73.8914 48.9737 74.5377 48.9737H77.6562V51.3175ZM77.6562 46.63H74.5377C72.5992 46.63 71.022 48.2072 71.022 50.1456C71.022 52.0841 72.5991 53.6612 74.5377 53.6612H77.6562V60.5852C77.6562 61.7108 76.7405 62.6264 75.615 62.6264H73.3441C72.8177 59.3389 69.9617 56.8191 66.5281 56.8191C63.0945 56.8191 60.2388 59.3389 59.7123 62.6264H54.3452V20.3267H64.4656C65.5912 20.3267 66.5069 21.2423 66.5069 22.368V22.6409H58.6611C58.0139 22.6409 57.4892 23.1655 57.4892 23.8128V41.7116C57.4892 42.3589 58.0139 42.8834 58.6611 42.8834H75.5759C76.723 42.8834 77.6561 43.8167 77.6561 44.9636V46.63H77.6562ZM66.507 24.9847V40.5397H59.8331V24.9847H66.507Z" fill="#004A30"/>
<path d="M61.3706 46.63H58.6613C58.0141 46.63 57.4894 47.1545 57.4894 47.8019C57.4894 48.4492 58.0141 48.9738 58.6613 48.9738H61.3706C62.0178 48.9738 62.5425 48.4492 62.5425 47.8019C62.5425 47.1545 62.0178 46.63 61.3706 46.63Z" fill="#004A30"/>
<path d="M34.0461 28.5067C34.6933 28.5067 35.218 27.9822 35.218 27.3348C35.218 26.6875 34.6933 26.163 34.0461 26.163H29.3614C28.7142 26.163 28.1895 26.6875 28.1895 27.3348V36.7072C28.1895 37.3545 28.7142 37.8791 29.3614 37.8791H34.0461C34.6933 37.8791 35.218 37.3545 35.218 36.7072C35.218 36.0598 34.6933 35.5353 34.0461 35.5353H30.5333V33.193H34.0461C34.6933 33.193 35.218 32.6684 35.218 32.0211C35.218 31.3737 34.6933 30.8492 34.0461 30.8492H30.5333V28.5067H34.0461Z" fill="#004A30"/>
<path d="M43.262 28.5067C43.9092 28.5067 44.4339 27.9822 44.4339 27.3348C44.4339 26.6875 43.9092 26.163 43.262 26.163H38.5773C37.9302 26.163 37.4055 26.6875 37.4055 27.3348V36.7072C37.4055 37.3545 37.9302 37.8791 38.5773 37.8791H43.262C43.9092 37.8791 44.4339 37.3545 44.4339 36.7072C44.4339 36.0598 43.9092 35.5353 43.262 35.5353H39.7492V33.193H43.262C43.9092 33.193 44.4339 32.6684 44.4339 32.0211C44.4339 31.3737 43.9092 30.8492 43.262 30.8492H39.7492V28.5067H43.262Z" fill="#004A30"/>
<path d="M15.7676 28.5067C16.4148 28.5067 16.9395 27.9822 16.9395 27.3348C16.9395 26.6875 16.4148 26.163 15.7676 26.163H11.083C10.4358 26.163 9.91109 26.6875 9.91109 27.3348V36.7072C9.91109 37.3545 10.4358 37.8791 11.083 37.8791C11.7301 37.8791 12.2548 37.3545 12.2548 36.7072V33.193H15.7676C16.4148 33.193 16.9395 32.6684 16.9395 32.0211C16.9395 31.3737 16.4148 30.8492 15.7676 30.8492H12.2548V28.5067H15.7676Z" fill="#004A30"/>
<path d="M26.002 32.0212V27.335C26.002 26.6876 25.4773 26.1631 24.8302 26.1631H20.1455C19.4983 26.1631 18.9736 26.6876 18.9736 27.335V36.7073C18.9736 37.3547 19.4983 37.8792 20.1455 37.8792C20.7927 37.8792 21.3173 37.3547 21.3173 36.7073V33.5518L23.8552 37.3575C24.0809 37.6962 24.4525 37.8793 24.8312 37.8793C25.0547 37.8793 25.2805 37.8156 25.4803 37.6823C26.0187 37.3231 26.1642 36.5956 25.8052 36.0572L23.8952 33.1931H24.8302C25.4773 33.1931 26.002 32.6684 26.002 32.0212ZM23.6583 30.8493H21.3173V28.5068H23.6583V30.8493Z" fill="#004A30"/>
</g>
<defs>
<clipPath id="clip0_5_27">
<rect width="80" height="80" fill="white"/>
</clipPath>
</defs>
</svg>
