<svg width="80" height="80" viewBox="0 0 80 80" fill="none" xmlns="http://www.w3.org/2000/svg">
<g clip-path="url(#clip0_4_2)">
<path d="M63.3489 30.0466C62.7522 29.7961 62.0653 30.0767 61.8149 30.6736L54.3292 48.5102C53.7585 49.8703 55.9041 50.8145 56.4905 49.4172L63.9761 31.5806C64.2264 30.9837 63.9456 30.297 63.3489 30.0466Z" fill="#004A30"/>
<path d="M55.5701 29.9551C53.7833 29.9551 52.3297 31.5592 52.3297 33.5308C52.3297 35.5023 53.7834 37.1064 55.5701 37.1064C57.3569 37.1064 58.8106 35.5023 58.8106 33.5308C58.8106 31.5592 57.357 29.9551 55.5701 29.9551ZM55.5701 34.7628C55.0841 34.7628 54.6734 34.1987 54.6734 33.5309C54.6734 32.8631 55.0841 32.299 55.5701 32.299C56.0562 32.299 56.4669 32.8631 56.4669 33.5309C56.4669 34.1987 56.0564 34.7628 55.5701 34.7628Z" fill="#004A30"/>
<path d="M59.4944 46.5598C59.4944 48.5316 60.9481 50.1355 62.7349 50.1355C64.5216 50.1355 65.9752 48.5314 65.9752 46.5598C65.9752 44.5883 64.5216 42.9842 62.7349 42.9842C60.9481 42.9842 59.4944 44.5883 59.4944 46.5598ZM63.6314 46.5598C63.6314 47.2277 63.2208 47.7917 62.7349 47.7917C62.2488 47.7917 61.8381 47.2277 61.8381 46.5598C61.8381 45.892 62.2488 45.328 62.7349 45.328C63.2208 45.328 63.6314 45.892 63.6314 46.5598Z" fill="#004A30"/>
<path d="M19.2602 50.723C19.9074 50.723 20.432 50.1983 20.432 49.5511V30.5397C20.432 29.8925 19.9074 29.3678 19.2602 29.3678H15.1966C14.5494 29.3678 14.0247 29.8925 14.0247 30.5397C14.0247 31.1869 14.5494 31.7116 15.1966 31.7116H18.0881V49.5511C18.0883 50.1983 18.613 50.723 19.2602 50.723Z" fill="#004A30"/>
<path d="M22.9351 35.6494V44.4414C22.9351 48.1191 25.927 51.1109 29.6047 51.1109C33.2823 51.1109 36.2742 48.1191 36.2742 44.4414V35.6494C36.2742 31.9717 33.2823 28.9798 29.6047 28.9798C25.927 28.9798 22.9351 31.9719 22.9351 35.6494ZM25.2789 35.6494C25.2789 33.2641 27.2193 31.3236 29.6047 31.3236C31.99 31.3236 33.9304 33.2641 33.9304 35.6494V44.4414C33.9304 46.8267 31.99 48.7672 29.6047 48.7672C27.2193 48.7672 25.2789 46.8267 25.2789 44.4414V35.6494Z" fill="#004A30"/>
<path d="M37.5852 35.6494V44.4414C37.5852 48.1191 40.5771 51.1109 44.2547 51.1109C47.9324 51.1109 50.9243 48.1191 50.9243 44.4414V35.6494C50.9243 31.9717 47.9324 28.9798 44.2547 28.9798C40.5771 28.9798 37.5852 31.9719 37.5852 35.6494ZM48.5803 35.6494V44.4414C48.5803 46.8267 46.6399 48.7672 44.2546 48.7672C41.8692 48.7672 39.9288 46.8267 39.9288 44.4414V35.6494C39.9288 33.2641 41.8692 31.3236 44.2546 31.3236C46.6399 31.3236 48.5803 33.2642 48.5803 35.6494Z" fill="#004A30"/>
<path d="M68.2844 11.7605C60.7292 4.20552 50.6844 0.0448914 40 0.0448914C29.3156 0.0448914 19.2708 4.20552 11.7156 11.7605C4.16078 19.3155 0 29.3605 0 40.0449C0 50.256 3.8475 59.9769 10.8336 67.4171C17.7873 74.8227 27.182 79.2741 37.2869 79.9514C37.3134 79.9532 37.34 79.9541 37.3664 79.9541C37.978 79.9541 38.493 79.4796 38.5345 78.8605C38.5778 78.2147 38.0894 77.6561 37.4436 77.6128C27.9323 76.9753 19.0889 72.7846 12.5422 65.8127C5.96562 58.8088 2.34375 49.6577 2.34375 40.0449C2.34375 29.9864 6.26062 20.5302 13.373 13.4179C20.4853 6.30551 29.9416 2.38864 40 2.38864C50.0583 2.38864 59.5147 6.30551 66.6269 13.4179C73.7394 20.5302 77.6562 29.9864 77.6562 40.0449C77.6562 49.5005 74.1372 58.541 67.747 65.501C61.3961 72.4183 52.7691 76.6946 43.4553 77.5418C42.8108 77.6003 42.3358 78.1703 42.3945 78.8149C42.453 79.4594 43.0217 79.9338 43.6677 79.8758C53.5628 78.9758 62.7273 74.4336 69.4733 67.0861C76.2616 59.6925 80 50.0891 80 40.0449C80 29.3605 75.8392 19.3157 68.2844 11.7605Z" fill="#004A30"/>
<path d="M26.8614 20.8847C26.0311 22.0987 27.9028 23.5137 28.7959 22.2078C29.3844 21.3475 30.0376 20.5625 30.7386 19.8595C31.2292 20.8484 31.9522 21.7208 32.9386 22.3451C34.2189 23.1556 35.4725 21.1753 34.1922 20.3648C33.4309 19.883 32.9083 19.1269 32.6004 18.2656C35.3612 16.2651 38.5633 15.4109 41.457 16.0684C42.9343 16.4058 43.4539 14.1187 41.9764 13.783C38.6461 13.0261 35.1629 13.89 32.2908 15.6464C32.3615 14.8948 32.5897 14.2142 32.9197 13.5456C34.7244 10.0892 39.2495 9.21703 42.5856 10.3716C46.5364 11.7423 49.1092 15.1837 50.3739 19.0612C47.1558 18.072 43.5953 19.6445 40.8333 20.8647C39.0443 21.7039 40.1917 23.4928 41.7804 23.0086C45.0514 21.5634 48.7586 19.9255 51.3887 22.287C52.2 23.0151 53.5164 22.2814 53.3251 21.2075C52.8014 18.2984 51.7134 15.5966 50.1784 13.3944C48.3975 10.8392 46.0334 9.02703 43.3411 8.15312C41.0703 7.36984 38.5748 7.32547 36.3126 8.02812C33.8779 8.78453 31.9329 10.3633 30.8354 12.4737C30.0633 13.9764 29.7822 15.6531 29.9951 17.3373C28.8342 18.3523 27.7789 19.5431 26.8614 20.8847Z" fill="#004A30"/>
<path d="M34.8775 71.1383C39.5678 73.5553 46.3631 72.7736 49.0431 67.7769C49.9336 66.1167 50.2737 64.3692 50.0548 62.709C51.1958 61.7036 52.2344 60.5284 53.1387 59.2062C53.9944 57.9556 52.0601 56.6329 51.2042 57.8829C50.6162 58.7425 49.9636 59.5269 49.2633 60.2292C48.3651 58.5437 46.8262 57.2856 44.857 56.6484C41.6634 55.6148 38.8755 56.7586 36.4159 57.7676C33.5256 58.9536 31.2428 59.8901 28.5573 57.758C27.7203 57.0934 26.4706 57.8564 26.6794 58.9045C27.4897 62.9759 29.5698 68.4031 34.8775 71.1383ZM37.3055 59.9359C39.5955 58.9965 41.7584 58.1094 44.1355 58.8783C45.6945 59.3828 46.8591 60.4205 47.4144 61.8001C47.4158 61.8036 47.4169 61.8072 47.4183 61.8108C44.653 63.8211 41.443 64.6811 38.543 64.0222C37.0656 63.6862 36.5459 65.9719 38.0236 66.3076C41.3584 67.0655 44.8475 66.1978 47.7222 64.4361C47.6073 65.2245 47.3592 65.9687 46.9775 66.6689C44.9495 70.4498 39.6387 70.9551 35.9509 69.0547C32.4901 67.2712 30.6373 64.0378 29.6467 61.0147C32.4183 61.9408 34.9812 60.8895 37.3055 59.9359Z" fill="#004A30"/>
</g>
<defs>
<clipPath id="clip0_4_2">
<rect width="80" height="80" fill="white"/>
</clipPath>
</defs>
</svg>
