<svg width="105" height="47" viewBox="0 0 105 47" fill="none" xmlns="http://www.w3.org/2000/svg">
<path d="M56.0704 17.6797C56.0704 18.7943 55.8829 19.7682 55.5079 20.6016C55.1329 21.4297 54.6017 22.0625 53.9142 22.5C53.2267 22.9375 52.4246 23.1562 51.5079 23.1562C50.6121 23.1562 49.8178 22.9375 49.1251 22.5C48.4324 22.0573 47.8933 21.4297 47.5079 20.6172C47.1277 19.7995 46.9324 18.8542 46.922 17.7812V16.9609C46.922 15.8672 47.1121 14.901 47.4923 14.0625C47.8725 13.224 48.409 12.5833 49.1017 12.1406C49.7996 11.6927 50.5965 11.4688 51.4923 11.4688C52.4037 11.4688 53.2058 11.6901 53.8985 12.1328C54.5965 12.5703 55.1329 13.2083 55.5079 14.0469C55.8829 14.8802 56.0704 15.8516 56.0704 16.9609V17.6797ZM54.5782 16.9453C54.5782 15.5964 54.3074 14.5625 53.7657 13.8438C53.2241 13.1198 52.4662 12.7578 51.4923 12.7578C50.5444 12.7578 49.797 13.1198 49.2501 13.8438C48.7084 14.5625 48.4298 15.5625 48.4142 16.8438V17.6797C48.4142 18.987 48.6876 20.0156 49.2345 20.7656C49.7866 21.5104 50.5444 21.8828 51.5079 21.8828C52.4767 21.8828 53.2267 21.5312 53.7579 20.8281C54.2892 20.1198 54.5626 19.1068 54.5782 17.7891V16.9453ZM64.8923 18.3984H62.2204V23H60.7126V11.625H64.4782C65.7595 11.625 66.7438 11.9167 67.4313 12.5C68.1241 13.0833 68.4704 13.9323 68.4704 15.0469C68.4704 15.7552 68.2777 16.3724 67.8923 16.8984C67.5121 17.4245 66.9808 17.8177 66.2985 18.0781L68.9704 22.9062V23H67.361L64.8923 18.3984ZM62.2204 17.1719H64.5251C65.2699 17.1719 65.861 16.9792 66.2985 16.5938C66.7412 16.2083 66.9626 15.6927 66.9626 15.0469C66.9626 14.3438 66.7517 13.8047 66.3298 13.4297C65.9131 13.0547 65.309 12.8646 64.5173 12.8594H62.2204V17.1719ZM81.3782 21.5078C80.9928 22.0599 80.4537 22.474 79.761 22.75C79.0735 23.0208 78.2715 23.1562 77.3548 23.1562C76.4277 23.1562 75.6048 22.9401 74.886 22.5078C74.1673 22.0703 73.61 21.4505 73.2142 20.6484C72.8235 19.8464 72.623 18.9167 72.6126 17.8594V16.8672C72.6126 15.1536 73.011 13.8255 73.8079 12.8828C74.61 11.9401 75.735 11.4688 77.1829 11.4688C78.3704 11.4688 79.3261 11.7734 80.0501 12.3828C80.7741 12.987 81.2168 13.8464 81.3782 14.9609H79.8782C79.597 13.4557 78.7011 12.7031 77.1907 12.7031C76.1855 12.7031 75.4225 13.0573 74.9017 13.7656C74.386 14.4688 74.1256 15.4896 74.1204 16.8281V17.7578C74.1204 19.0339 74.4121 20.0495 74.9954 20.8047C75.5787 21.5547 76.3678 21.9297 77.3626 21.9297C77.9251 21.9297 78.4173 21.8672 78.8392 21.7422C79.261 21.6172 79.61 21.4062 79.886 21.1094V18.5547H77.2532V17.3359H81.3782V21.5078ZM89.7548 17.3359L92.7235 11.625H94.4267L90.5048 18.7578V23H89.0048V18.7578L85.0829 11.625H86.8017L89.7548 17.3359Z" fill="#131313"/>
<path d="M63.5938 34.9766H58.8204V40H57.3204V28.625H64.3673V29.8594H58.8204V33.75H63.5938V34.9766ZM77.3142 34.6797C77.3142 35.7943 77.1267 36.7682 76.7517 37.6016C76.3767 38.4297 75.8454 39.0625 75.1579 39.5C74.4704 39.9375 73.6683 40.1562 72.7517 40.1562C71.8558 40.1562 71.0616 39.9375 70.3688 39.5C69.6761 39.0573 69.1371 38.4297 68.7517 37.6172C68.3715 36.7995 68.1761 35.8542 68.1657 34.7812V33.9609C68.1657 32.8672 68.3558 31.901 68.736 31.0625C69.1162 30.224 69.6527 29.5833 70.3454 29.1406C71.0433 28.6927 71.8402 28.4688 72.736 28.4688C73.6475 28.4688 74.4496 28.6901 75.1423 29.1328C75.8402 29.5703 76.3767 30.2083 76.7517 31.0469C77.1267 31.8802 77.3142 32.8516 77.3142 33.9609V34.6797ZM75.822 33.9453C75.822 32.5964 75.5511 31.5625 75.0095 30.8438C74.4678 30.1198 73.71 29.7578 72.736 29.7578C71.7881 29.7578 71.0407 30.1198 70.4938 30.8438C69.9522 31.5625 69.6735 32.5625 69.6579 33.8438V34.6797C69.6579 35.987 69.9313 37.0156 70.4782 37.7656C71.0303 38.5104 71.7881 38.8828 72.7517 38.8828C73.7204 38.8828 74.4704 38.5312 75.0017 37.8281C75.5329 37.1198 75.8063 36.1068 75.822 34.7891V33.9453ZM90.7142 34.6797C90.7142 35.7943 90.5267 36.7682 90.1517 37.6016C89.7767 38.4297 89.2454 39.0625 88.5579 39.5C87.8704 39.9375 87.0683 40.1562 86.1517 40.1562C85.2558 40.1562 84.4616 39.9375 83.7688 39.5C83.0761 39.0573 82.5371 38.4297 82.1517 37.6172C81.7715 36.7995 81.5761 35.8542 81.5657 34.7812V33.9609C81.5657 32.8672 81.7558 31.901 82.136 31.0625C82.5162 30.224 83.0527 29.5833 83.7454 29.1406C84.4433 28.6927 85.2402 28.4688 86.136 28.4688C87.0475 28.4688 87.8496 28.6901 88.5423 29.1328C89.2402 29.5703 89.7767 30.2083 90.1517 31.0469C90.5267 31.8802 90.7142 32.8516 90.7142 33.9609V34.6797ZM89.222 33.9453C89.222 32.5964 88.9511 31.5625 88.4095 30.8438C87.8678 30.1198 87.11 29.7578 86.136 29.7578C85.1881 29.7578 84.4407 30.1198 83.8938 30.8438C83.3522 31.5625 83.0735 32.5625 83.0579 33.8438V34.6797C83.0579 35.987 83.3313 37.0156 83.8782 37.7656C84.4303 38.5104 85.1881 38.8828 86.1517 38.8828C87.1204 38.8828 87.8704 38.5312 88.4017 37.8281C88.9329 37.1198 89.2063 36.1068 89.222 34.7891V33.9453ZM95.3642 40V28.625H98.5751C99.5647 28.625 100.44 28.8438 101.2 29.2812C101.961 29.7188 102.546 30.3411 102.958 31.1484C103.375 31.9557 103.586 32.8828 103.591 33.9297V34.6562C103.591 35.7292 103.382 36.6693 102.966 37.4766C102.554 38.2839 101.963 38.9036 101.192 39.3359C100.427 39.7682 99.5334 39.9896 98.5126 40H95.3642ZM96.8642 29.8594V38.7734H98.4423C99.5985 38.7734 100.497 38.4141 101.138 37.6953C101.783 36.9766 102.106 35.9531 102.106 34.625V33.9609C102.106 32.6693 101.802 31.6667 101.192 30.9531C100.588 30.2344 99.7287 29.8698 98.6142 29.8594H96.8642Z" fill="#131313"/>
<g clip-path="url(#clip0_139_5)">
<path d="M41.3774 26.0286C41.3974 25.8624 41.3591 25.6944 41.2689 25.5534C40.4249 24.2325 40.5618 23.1064 40.6718 22.2016L40.686 22.0837C40.7229 21.7747 40.5578 21.4767 40.2762 21.3442C40.179 21.2984 40.0737 21.2578 39.9632 21.2236C39.3062 21.0204 38.2949 21.0108 37.5167 21.4476C37.3839 21.5222 37.278 21.6368 37.2142 21.7751C37.0501 22.1308 36.9196 22.4624 36.8046 22.7551C36.3708 23.8577 36.259 23.9543 35.8814 23.9567C35.6448 23.9582 35.4239 24.0755 35.2901 24.2705C34.6437 25.2129 33.9053 26.0777 33.0939 26.8581C32.9888 26.2882 32.8414 25.7592 32.7042 25.267C32.3686 24.0631 32.1035 23.1121 32.582 22.1832C34.1327 19.1724 34.5884 16.6839 33.936 14.7867C33.5727 13.7302 32.8571 12.8651 31.8515 12.2533C32.5925 10.6268 34.007 10.2231 34.7125 10.2501C35.1114 10.2654 35.4471 9.95442 35.4623 9.55556C35.4775 9.15678 35.1666 8.82086 34.7678 8.80581C33.3111 8.75007 31.4649 9.62874 30.5366 11.6573C29.4357 11.3133 28.3309 11.3402 27.3039 11.7433C25.4272 12.4801 23.8268 14.433 22.5472 17.5476C22.1621 18.4849 21.3644 18.8544 20.2602 19.3657C19.359 19.7831 18.3545 20.2497 17.3939 21.1276C16.7094 20.5663 15.9332 20.0995 15.0791 19.7531C15.8308 18.2041 17.2041 17.8155 17.8959 17.842C18.2948 17.8573 18.6305 17.5464 18.6457 17.1476C18.6609 16.7487 18.35 16.4129 17.9512 16.3978C17.5756 16.3834 17.1739 16.432 16.7688 16.5456C16.8516 15.7217 16.6966 14.8771 16.2992 14.1238C15.7668 13.1144 14.8732 12.3728 13.7829 12.0355C13.4261 11.9251 13.0563 11.8617 12.6837 11.8471C12.4253 11.8369 12.1812 11.9657 12.0436 12.1847C11.234 13.4732 11.1715 15.1092 11.8807 16.4541C12.3742 17.3898 13.1787 18.0949 14.1621 18.4617C13.9865 18.7204 13.8275 19.0043 13.6901 19.3151C9.13728 18.2727 4.4663 20.9112 3.06375 25.4445C1.59338 30.1969 4.26354 35.2595 9.0159 36.7299C10.7821 37.2763 12.627 37.2719 14.3754 36.7218C14.5715 36.8915 14.7694 37.0577 14.9702 37.2186C16.7943 38.681 18.7656 39.7463 20.829 40.3847C24.148 41.4116 27.564 41.2802 30.7076 40.0047C33.9933 38.6715 36.9077 36.0963 39.1354 32.5575C39.8622 31.4033 41.0773 28.53 41.3774 26.0286ZM20.8677 20.6773C22.0554 20.1272 23.2836 19.5583 23.884 18.0969C25.0081 15.361 26.3363 13.676 27.832 13.0889C28.7199 12.7403 29.6677 12.7932 30.6492 13.2468C31.6185 13.6946 32.2646 14.3709 32.5692 15.2568C33.0884 16.7668 32.6605 18.8746 31.2971 21.5214C30.5589 22.9543 30.9417 24.3273 31.3119 25.6551C31.5193 26.3993 31.7325 27.1664 31.7817 27.9977C28.4154 30.6378 24.1266 31.9958 19.9641 31.6911C20.0926 31.3933 20.2054 31.0882 20.3015 30.7777C21.265 27.6635 20.4504 24.4161 18.4371 22.1335C19.2167 21.4432 20.0537 21.0543 20.8677 20.6773ZM13.159 15.7798C12.7585 15.0203 12.73 14.1203 13.0634 13.3423C13.1619 13.3618 13.2594 13.3863 13.3557 13.416C14.077 13.6392 14.6684 14.13 15.0206 14.7978C15.4212 15.5573 15.4498 16.4574 15.1163 17.2353C15.0178 17.2159 14.9203 17.1913 14.8243 17.1616L14.8241 17.1616C14.1025 16.9384 13.5112 16.4476 13.159 15.7798ZM9.44309 35.3491C5.452 34.1143 3.20964 29.8628 4.44448 25.8716C5.67932 21.8805 9.93084 19.6381 13.9219 20.8729C17.9131 22.1078 20.1555 26.3593 18.9207 30.3505C18.7976 30.7484 18.6422 31.1356 18.457 31.5065C17.9951 31.4264 17.5367 31.3245 17.0827 31.2008C17.3083 30.8067 17.4916 30.3893 17.6274 29.9504C17.868 29.1729 17.9532 28.3676 17.8807 27.557C17.8452 27.1596 17.4944 26.866 17.0966 26.9016C16.6991 26.9372 16.4056 27.2882 16.4412 27.6858C16.4968 28.3081 16.4314 28.9262 16.2467 29.5232C16.1124 29.9573 15.9189 30.3647 15.6709 30.7404C14.7025 30.3711 13.7635 29.9017 12.8694 29.3388C12.6873 29.2241 12.4635 29.1966 12.259 29.2638C11.5106 29.5096 10.7226 29.8662 10.0308 30.8033C9.85255 31.0448 9.84213 31.3714 10.0047 31.6238C10.9433 33.0815 11.9889 34.3945 13.1269 35.5499C11.9081 35.7894 10.6538 35.7237 9.44309 35.3491ZM37.9123 31.7876C33.8311 38.2704 27.6046 40.9682 21.2563 39.0041C17.5502 37.8574 14.1084 35.1277 11.517 31.2918C11.8013 31.0203 12.0971 30.8644 12.3995 30.7467C13.597 31.4677 14.8652 32.0375 16.1743 32.4426C19.8795 33.5889 23.8427 33.4316 27.6355 31.9877C29.5638 31.2536 31.3622 30.2066 32.9421 28.9174C32.9603 28.904 32.978 28.8898 32.9948 28.8747C34.2451 27.847 35.357 26.667 36.2851 25.3694C37.4033 25.1819 37.7822 24.2186 38.1497 23.2842C38.2337 23.0706 38.3199 22.8516 38.4187 22.6229C38.6434 22.5468 38.9194 22.5168 39.1801 22.5381C39.0925 23.4729 39.1016 24.7103 39.9102 26.1005C39.6008 28.2334 38.5698 30.7431 37.9123 31.7876Z" fill="black"/>
<path d="M30.7428 14.8325C30.4369 14.5766 29.981 14.6167 29.7248 14.9227C29.4685 15.2287 29.5088 15.6844 29.8149 15.9407C30.252 16.3066 30.0604 17.9079 28.8487 20.2602C28.6659 20.615 28.8053 21.0508 29.1602 21.2336C29.1988 21.2535 29.2383 21.2696 29.2783 21.282C29.6067 21.3836 29.9707 21.2384 30.1336 20.9222C31.2173 18.8187 32.2025 16.0547 30.7428 14.8325Z" fill="black"/>
<path d="M29.1925 36.0042C29.0582 35.6284 28.6436 35.433 28.2678 35.5675C28.2675 35.5676 28.2639 35.5689 28.2636 35.5689C27.8865 35.6989 27.6877 36.1095 27.8173 36.4867C27.8952 36.713 28.075 36.8757 28.2878 36.9415C28.4296 36.9854 28.5862 36.9863 28.737 36.9345L28.7564 36.9277C29.1322 36.7933 29.3269 36.3801 29.1925 36.0042Z" fill="black"/>
<path d="M27.2629 36.6305C27.1941 36.2373 26.8198 35.9742 26.4266 36.0428C23.6897 36.5205 21.711 35.8558 21.682 35.8454C21.3066 35.7148 20.8944 35.9114 20.7618 36.2871C20.6291 36.6635 20.8265 37.0762 21.2029 37.209C21.2133 37.2127 21.2501 37.2254 21.3117 37.2445C21.8051 37.3972 23.8863 37.9533 26.6751 37.4665C27.0683 37.398 27.3314 37.0236 27.2629 36.6305Z" fill="black"/>
<path d="M17.2014 25.2359L17.1858 25.2061C16.9986 24.8538 16.5613 24.7196 16.2086 24.9067C15.8561 25.0938 15.722 25.5313 15.9092 25.8839L15.9194 25.9033C16.0122 26.0817 16.1689 26.205 16.3468 26.26C16.5223 26.3143 16.7184 26.3021 16.8941 26.2106C17.2481 26.0264 17.3857 25.5899 17.2014 25.2359Z" fill="black"/>
</g>
<defs>
<clipPath id="clip0_139_5">
<rect width="37" height="37" fill="white" transform="translate(10.9361) rotate(17.1917)"/>
</clipPath>
</defs>
</svg>
