<svg width="80" height="80" viewBox="0 0 80 80" fill="none" xmlns="http://www.w3.org/2000/svg">
<path d="M73.5734 33.4128C73.5734 31.5183 72.7339 29.8172 71.4088 28.6583C72.7339 27.4995 73.5734 25.7984 73.5734 23.9039C73.5734 20.4208 70.7395 17.5869 67.2564 17.5869H65.8998C65.1492 17.5869 64.4355 17.7469 63.7894 18.0327V5.98141C63.7895 2.68328 61.1062 0 57.8081 0H31.497C28.1989 0 25.5156 2.68328 25.5156 5.98141V18.5005C23.9328 16.7431 21.8217 15.5095 19.3475 15.0214C17.3248 14.6248 15.3938 16.2334 15.3938 18.2875V37.4558C15.3938 39.8717 14.9639 42.228 14.1159 44.4589C12.7778 47.9805 11.1902 53.3103 11.0966 58.9497L6.73391 64.8316C6.53438 65.1008 6.42641 65.4272 6.42641 65.7623V78.4375C6.42641 79.3005 7.12609 80 7.98891 80H32.5156C32.9766 80 33.4139 79.7966 33.7108 79.4439L39.0684 73.0814C41.6205 72.7881 50.7266 71.3931 55.7394 66.0528H57.8081C61.1062 66.0528 63.7895 63.3695 63.7895 60.0714V58.3016C64.4356 58.5873 65.1492 58.7473 65.9 58.7473H67.2566C70.7397 58.7473 73.5736 55.9136 73.5736 52.4303C73.5736 50.5358 72.7341 48.8347 71.4089 47.6759C72.7341 46.5172 73.5736 44.8159 73.5736 42.9214C73.5736 41.0269 72.7341 39.3258 71.4089 38.167C72.7339 37.0084 73.5734 35.3073 73.5734 33.4128ZM65.9 20.712H67.2566C69.0167 20.712 70.4486 22.1439 70.4486 23.9041C70.4486 25.6641 69.0167 27.0959 67.2566 27.0959H65.9C64.7364 27.0959 63.7895 26.1491 63.7895 24.9855V22.8227C63.7895 21.6588 64.7364 20.712 65.9 20.712ZM47.5944 3.125V3.47047C47.5944 5.08469 46.2811 6.39797 44.6669 6.39797C43.0527 6.39797 41.7395 5.08469 41.7395 3.47047V3.125H47.5944ZM60.6645 60.0716C60.6645 61.6466 59.3831 62.928 57.8081 62.928H31.497C29.922 62.928 28.6406 61.6466 28.6406 60.0716V51.8488C28.6406 50.9858 27.9409 50.2863 27.0781 50.2863C26.2153 50.2863 25.5156 50.9858 25.5156 51.8488V60.0716V60.0719C25.5156 63.37 28.1989 66.0531 31.4969 66.0531H50.8395C45.6023 69.3959 38.2475 70.0258 38.1588 70.033C37.7419 70.0658 37.3555 70.2642 37.0861 70.5842L31.7886 76.875H9.55156V66.2787L13.9098 60.4028C14.1094 60.1336 14.2173 59.8072 14.2173 59.472C14.2173 54.1147 15.7508 48.9545 17.0373 45.5692C18.0205 42.9823 18.5189 40.2527 18.5189 37.4559V18.2875C18.5189 18.1706 18.625 18.0645 18.7445 18.0877C22.7945 18.8866 25.5156 22.5078 25.5156 27.0984V38.0995C25.5156 38.9625 26.2153 39.662 27.0781 39.662C27.9409 39.662 28.6406 38.9625 28.6406 38.0995V27.0984V5.98141C28.6406 4.40641 29.922 3.125 31.497 3.125H38.6144V3.47047C38.6144 6.80781 41.3295 9.52297 44.6667 9.52297C48.0041 9.52297 50.7192 6.80781 50.7192 3.47047V3.125H57.808C59.383 3.125 60.6644 4.40641 60.6644 5.98141V60.0716H60.6645ZM70.4484 52.4306C70.4484 54.1908 69.0166 55.6227 67.2564 55.6227H65.8998C64.7363 55.6227 63.7894 54.6758 63.7894 53.5122V51.3494C63.7894 50.1856 64.7363 49.2389 65.8998 49.2389H67.2564C69.0166 49.2386 70.4484 50.6706 70.4484 52.4306ZM70.4484 42.9217C70.4484 44.6817 69.0166 46.1136 67.2564 46.1136H65.8998C64.7363 46.1136 63.7894 45.1667 63.7894 44.0031V41.8403C63.7894 40.6766 64.7363 39.7298 65.8998 39.7298H67.2564C69.0166 39.7298 70.4484 41.1617 70.4484 42.9217ZM65.9 36.6048C64.7364 36.6048 63.7895 35.658 63.7895 34.4944V32.3316C63.7895 31.1678 64.7364 30.2211 65.9 30.2211H67.2566C69.0167 30.2211 70.4486 31.653 70.4486 33.4131C70.4486 35.1731 69.0167 36.605 67.2566 36.605H65.9V36.6048Z" fill="#004A30"/>
<path d="M48.3761 44.7733H40.9122C37.933 44.7733 35.5092 47.197 35.5092 50.1762C35.5092 53.1555 37.933 55.5792 40.9122 55.5792H48.3761C51.3553 55.5792 53.7791 53.1555 53.7791 50.1762C53.7791 47.197 51.3555 44.7733 48.3761 44.7733ZM48.3761 52.4541H40.9122C39.6561 52.4541 38.6342 51.4322 38.6342 50.1761C38.6342 48.92 39.6561 47.8981 40.9122 47.8981H48.3761C49.6322 47.8981 50.6541 48.92 50.6541 50.1761C50.6541 51.4322 49.6322 52.4541 48.3761 52.4541Z" fill="#004A30"/>
<path d="M55.4213 21.4692C55.3371 20.6745 54.6666 20.0716 53.8675 20.0716H49.7705V18.9167C49.7705 16.1025 47.481 13.813 44.6667 13.813C41.8525 13.813 39.5631 16.1025 39.5631 18.9167V20.0716H35.4208C34.6217 20.0716 33.9513 20.6745 33.867 21.4692L32.3045 36.2016C32.2578 36.6422 32.4003 37.0819 32.6967 37.4114C32.993 37.7408 33.4153 37.9289 33.8584 37.9289H55.4302C55.8733 37.9289 56.2955 37.7408 56.5919 37.4114C56.8881 37.082 57.0308 36.6422 56.9841 36.2016L55.4213 21.4692ZM42.6881 18.9167C42.6881 17.8256 43.5758 16.938 44.6667 16.938C45.7578 16.938 46.6455 17.8256 46.6455 18.9167V20.0716H42.6881V18.9167ZM35.5953 34.8037L36.8264 23.1964H39.5633V24.75C39.5633 25.613 40.263 26.3125 41.1258 26.3125C41.9886 26.3125 42.6883 25.613 42.6883 24.75V23.1964H46.6456V24.75C46.6456 25.613 47.3453 26.3125 48.2081 26.3125C49.071 26.3125 49.7706 25.613 49.7706 24.75V23.1964H52.4622L53.6933 34.8037H35.5953Z" fill="#004A30"/>
<path d="M28.5359 44.2844C28.2133 43.497 27.2797 43.1134 26.4951 43.4391C25.7089 43.7655 25.3239 44.6923 25.65 45.4797C25.9755 46.2655 26.9047 46.6513 27.6906 46.325C28.4751 45.9992 28.8633 45.0702 28.5359 44.2844Z" fill="#004A30"/>
</svg>
