<svg width="80" height="100" viewBox="0 0 80 100" fill="none" xmlns="http://www.w3.org/2000/svg">
<g clip-path="url(#clip0_6_2)">
<path d="M79.3415 12.5298C79.294 12.4743 69.897 1.3532 69.897 1.3532C69.5377 0.925459 69.1662 0.483368 68.4724 0.483368H30.6412C29.5362 0.483368 28.6371 1.59887 28.6371 2.97013V10.6065L15.3035 13.4428C14.2348 13.6755 13.516 14.9448 13.7012 16.2697L14.3779 21.166C10.044 22.9759 5.59445 24.8416 1.29898 26.7564C0.283976 27.2169 -0.24868 28.6174 0.113508 29.8845L8.65804 59.3604C8.82992 59.9535 9.28038 60.3229 9.76085 60.3229C9.89242 60.3229 10.0265 60.2952 10.1574 60.2366C10.7665 59.9648 11.0826 59.1318 10.8635 58.3759L2.44538 29.336C6.49226 27.538 10.6832 25.7781 14.779 24.0674L18.8057 53.1998L23.4391 86.7506C23.6065 87.9349 24.4454 88.7776 25.3923 88.7776C25.4995 88.7776 25.6082 88.7668 25.7173 88.7445L38.2666 86.072L48.0729 83.986L33.3243 90.5644L21.6938 95.7538L12.6613 64.5768C12.4424 63.821 11.7713 63.4288 11.1621 63.7004C10.553 63.9721 10.2369 64.8051 10.4559 65.5609L19.6165 97.1808C19.9094 98.1752 20.6685 98.7933 21.4709 98.7933C21.6926 98.7933 21.9177 98.746 22.1371 98.6465L34.117 93.3015L61.3191 81.1684L66.5159 80.063H77.9957C79.1007 80.063 79.9998 78.945 79.9998 77.5706V14.1684C79.9999 13.298 79.6193 12.854 79.3415 12.5298ZM76.2366 12.8741H70.3726L70.2273 12.8749C69.9465 12.8772 69.2891 12.8832 69.1224 12.6777C69.084 12.6302 69.039 12.4716 69.039 12.1771L69.0254 4.34061L76.2366 12.8741ZM77.6562 77.1541H30.9809V48.8124C30.9809 48.0093 30.4562 47.3582 29.809 47.3582C29.1618 47.3582 28.6371 48.0093 28.6371 48.8124V77.5702C28.6371 78.9444 29.5362 80.0626 30.6412 80.0626H52.643L37.8704 83.205L25.6857 85.7999L21.1157 52.7081L16.0737 16.2298L28.6369 13.5572V42.0647C28.6369 42.8679 29.1616 43.519 29.8088 43.519C30.456 43.519 30.9807 42.8679 30.9807 42.0647V3.39167H66.6799L66.6952 12.1804C66.6952 13.2456 66.9563 14.1073 67.4712 14.7418C68.2623 15.7165 69.3806 15.7844 70.0748 15.7844C70.1345 15.7844 70.191 15.7838 70.244 15.7834L77.6562 15.7828V77.1541Z" fill="#004A30"/>
<path d="M36.6297 23.0641C36.6297 23.8672 37.1544 24.5184 37.8016 24.5184H71.3072C71.9544 24.5184 72.4791 23.8672 72.4791 23.0641C72.4791 22.261 71.9544 21.6099 71.3072 21.6099H37.8016C37.1544 21.6099 36.6297 22.261 36.6297 23.0641Z" fill="#004A30"/>
<path d="M71.3072 31.9412H37.8016C37.1544 31.9412 36.6297 32.5923 36.6297 33.3955C36.6297 34.1986 37.1544 34.8497 37.8016 34.8497H71.3072C71.9544 34.8497 72.4791 34.1986 72.4791 33.3955C72.4791 32.5923 71.9544 31.9412 71.3072 31.9412Z" fill="#004A30"/>
<path d="M71.3072 42.2726H37.8016C37.1544 42.2726 36.6297 42.9237 36.6297 43.7269C36.6297 44.53 37.1544 45.1811 37.8016 45.1811H71.3072C71.9544 45.1811 72.4791 44.53 72.4791 43.7269C72.4791 42.9237 71.9544 42.2726 71.3072 42.2726Z" fill="#004A30"/>
<path d="M71.3072 52.604H37.8016C37.1544 52.604 36.6297 53.2551 36.6297 54.0582C36.6297 54.8614 37.1544 55.5125 37.8016 55.5125H71.3072C71.9544 55.5125 72.4791 54.8614 72.4791 54.0582C72.4791 53.2551 71.9544 52.604 71.3072 52.604Z" fill="#004A30"/>
<path d="M71.3072 62.9355H37.8016C37.1544 62.9355 36.6297 63.5866 36.6297 64.3898C36.6297 65.1929 37.1544 65.844 37.8016 65.844H71.3072C71.9544 65.844 72.4791 65.1929 72.4791 64.3898C72.4791 63.5866 71.9544 62.9355 71.3072 62.9355Z" fill="#004A30"/>
</g>
<defs>
<clipPath id="clip0_6_2">
<rect width="80" height="99.2766" fill="white"/>
</clipPath>
</defs>
</svg>
