<svg width="105" height="47" viewBox="0 0 105 47" fill="none" xmlns="http://www.w3.org/2000/svg">
<path d="M56.0782 16.9531V17.6719C56.0782 18.526 55.9715 19.2917 55.7579 19.9688C55.5444 20.6458 55.2371 21.2214 54.8361 21.6953C54.435 22.1693 53.9532 22.5312 53.3907 22.7812C52.8335 23.0312 52.2085 23.1562 51.5157 23.1562C50.8439 23.1562 50.2267 23.0312 49.6642 22.7812C49.1069 22.5312 48.6225 22.1693 48.2111 21.6953C47.8048 21.2214 47.4897 20.6458 47.2657 19.9688C47.0418 19.2917 46.9298 18.526 46.9298 17.6719V16.9531C46.9298 16.099 47.0392 15.3359 47.2579 14.6641C47.4819 13.987 47.797 13.4115 48.2032 12.9375C48.6095 12.4583 49.0913 12.0938 49.6486 11.8438C50.2111 11.5938 50.8282 11.4688 51.5001 11.4688C52.1928 11.4688 52.8178 11.5938 53.3751 11.8438C53.9376 12.0938 54.4194 12.4583 54.8204 12.9375C55.2267 13.4115 55.5366 13.987 55.7501 14.6641C55.9689 15.3359 56.0782 16.099 56.0782 16.9531ZM54.5861 17.6719V16.9375C54.5861 16.2604 54.5157 15.6615 54.3751 15.1406C54.2397 14.6198 54.0392 14.1823 53.7736 13.8281C53.5079 13.474 53.1824 13.2057 52.797 13.0234C52.4168 12.8411 51.9845 12.75 51.5001 12.75C51.0314 12.75 50.6069 12.8411 50.2267 13.0234C49.8517 13.2057 49.5288 13.474 49.2579 13.8281C48.9923 14.1823 48.7866 14.6198 48.6407 15.1406C48.4949 15.6615 48.422 16.2604 48.422 16.9375V17.6719C48.422 18.3542 48.4949 18.9583 48.6407 19.4844C48.7866 20.0052 48.9949 20.4453 49.2657 20.8047C49.5418 21.1589 49.8673 21.4271 50.2423 21.6094C50.6225 21.7917 51.047 21.8828 51.5157 21.8828C52.0053 21.8828 52.4402 21.7917 52.8204 21.6094C53.2006 21.4271 53.521 21.1589 53.7814 20.8047C54.047 20.4453 54.2475 20.0052 54.3829 19.4844C54.5184 18.9583 54.5861 18.3542 54.5861 17.6719ZM60.7361 11.625H64.5017C65.3559 11.625 66.0772 11.7552 66.6657 12.0156C67.2595 12.276 67.71 12.6615 68.0173 13.1719C68.3298 13.6771 68.4861 14.2995 68.4861 15.0391C68.4861 15.5599 68.3793 16.0365 68.1657 16.4688C67.9574 16.8958 67.6553 17.2604 67.2595 17.5625C66.8689 17.8594 66.4001 18.0807 65.8532 18.2266L65.4314 18.3906H61.8923L61.8767 17.1641H64.5486C65.0902 17.1641 65.5407 17.0703 65.9001 16.8828C66.2595 16.6901 66.5303 16.4323 66.7126 16.1094C66.8949 15.7865 66.9861 15.4297 66.9861 15.0391C66.9861 14.6016 66.9001 14.2188 66.7282 13.8906C66.5564 13.5625 66.2855 13.3099 65.9157 13.1328C65.5512 12.9505 65.0798 12.8594 64.5017 12.8594H62.2439V23H60.7361V11.625ZM67.3845 23L64.6189 17.8438L66.1892 17.8359L68.9939 22.9062V23H67.3845ZM81.4017 17.3359V21.5C81.2611 21.7083 81.0371 21.9427 80.7298 22.2031C80.4225 22.4583 79.998 22.6823 79.4564 22.875C78.9199 23.0625 78.2272 23.1562 77.3782 23.1562C76.6855 23.1562 76.0475 23.0365 75.4642 22.7969C74.8861 22.5521 74.3835 22.1979 73.9564 21.7344C73.5345 21.2656 73.2064 20.6979 72.972 20.0312C72.7428 19.3594 72.6282 18.599 72.6282 17.75V16.8672C72.6282 16.0182 72.7272 15.2604 72.9251 14.5938C73.1282 13.9271 73.4251 13.362 73.8157 12.8984C74.2064 12.4297 74.6855 12.0755 75.2532 11.8359C75.821 11.5911 76.472 11.4688 77.2064 11.4688C78.0762 11.4688 78.8027 11.6198 79.3861 11.9219C79.9746 12.2188 80.4329 12.6302 80.7611 13.1562C81.0944 13.6823 81.3079 14.2812 81.4017 14.9531H79.8939C79.8262 14.5417 79.6907 14.1667 79.4876 13.8281C79.2897 13.4896 79.0059 13.2188 78.6361 13.0156C78.2663 12.8073 77.7897 12.7031 77.2064 12.7031C76.6803 12.7031 76.2246 12.7995 75.8392 12.9922C75.4538 13.1849 75.1361 13.4609 74.8861 13.8203C74.6361 14.1797 74.4486 14.6146 74.3236 15.125C74.2038 15.6354 74.1439 16.2109 74.1439 16.8516V17.75C74.1439 18.4062 74.2194 18.9922 74.3704 19.5078C74.5267 20.0234 74.748 20.4635 75.0345 20.8281C75.321 21.1875 75.6621 21.4609 76.0579 21.6484C76.459 21.8359 76.9017 21.9297 77.3861 21.9297C77.9225 21.9297 78.3574 21.8854 78.6907 21.7969C79.0241 21.7031 79.2845 21.5938 79.472 21.4688C79.6595 21.3385 79.8027 21.2161 79.9017 21.1016V18.5547H77.2689V17.3359H81.4017ZM86.8251 11.625L89.7782 17.3359L92.7392 11.625H94.4501L90.5282 18.75V23H89.0204V18.75L85.0986 11.625H86.8251Z" fill="white"/>
<path d="M58.8282 28.625V40H57.3204V28.625H58.8282ZM63.5939 33.7422V34.9766H58.5001V33.7422H63.5939ZM64.3673 28.625V29.8594H58.5001V28.625H64.3673ZM77.322 33.9531V34.6719C77.322 35.526 77.2152 36.2917 77.0017 36.9688C76.7881 37.6458 76.4809 38.2214 76.0798 38.6953C75.6788 39.1693 75.197 39.5312 74.6345 39.7812C74.0772 40.0312 73.4522 40.1562 72.7595 40.1562C72.0876 40.1562 71.4704 40.0312 70.9079 39.7812C70.3506 39.5312 69.8663 39.1693 69.4548 38.6953C69.0486 38.2214 68.7335 37.6458 68.5095 36.9688C68.2855 36.2917 68.1736 35.526 68.1736 34.6719V33.9531C68.1736 33.099 68.2829 32.3359 68.5017 31.6641C68.7256 30.987 69.0407 30.4115 69.447 29.9375C69.8532 29.4583 70.335 29.0938 70.8923 28.8438C71.4548 28.5938 72.072 28.4688 72.7439 28.4688C73.4366 28.4688 74.0616 28.5938 74.6189 28.8438C75.1814 29.0938 75.6631 29.4583 76.0642 29.9375C76.4704 30.4115 76.7803 30.987 76.9939 31.6641C77.2126 32.3359 77.322 33.099 77.322 33.9531ZM75.8298 34.6719V33.9375C75.8298 33.2604 75.7595 32.6615 75.6189 32.1406C75.4835 31.6198 75.2829 31.1823 75.0173 30.8281C74.7517 30.474 74.4262 30.2057 74.0407 30.0234C73.6605 29.8411 73.2282 29.75 72.7439 29.75C72.2751 29.75 71.8506 29.8411 71.4704 30.0234C71.0954 30.2057 70.7725 30.474 70.5017 30.8281C70.2361 31.1823 70.0303 31.6198 69.8845 32.1406C69.7387 32.6615 69.6657 33.2604 69.6657 33.9375V34.6719C69.6657 35.3542 69.7387 35.9583 69.8845 36.4844C70.0303 37.0052 70.2387 37.4453 70.5095 37.8047C70.7855 38.1589 71.1111 38.4271 71.4861 38.6094C71.8663 38.7917 72.2907 38.8828 72.7595 38.8828C73.2491 38.8828 73.684 38.7917 74.0642 38.6094C74.4444 38.4271 74.7647 38.1589 75.0251 37.8047C75.2907 37.4453 75.4913 37.0052 75.6267 36.4844C75.7621 35.9583 75.8298 35.3542 75.8298 34.6719ZM90.7376 33.9531V34.6719C90.7376 35.526 90.6309 36.2917 90.4173 36.9688C90.2038 37.6458 89.8965 38.2214 89.4954 38.6953C89.0944 39.1693 88.6126 39.5312 88.0501 39.7812C87.4928 40.0312 86.8678 40.1562 86.1751 40.1562C85.5032 40.1562 84.8861 40.0312 84.3236 39.7812C83.7663 39.5312 83.2819 39.1693 82.8704 38.6953C82.4642 38.2214 82.1491 37.6458 81.9251 36.9688C81.7012 36.2917 81.5892 35.526 81.5892 34.6719V33.9531C81.5892 33.099 81.6986 32.3359 81.9173 31.6641C82.1413 30.987 82.4564 30.4115 82.8626 29.9375C83.2689 29.4583 83.7506 29.0938 84.3079 28.8438C84.8704 28.5938 85.4876 28.4688 86.1595 28.4688C86.8522 28.4688 87.4772 28.5938 88.0345 28.8438C88.597 29.0938 89.0788 29.4583 89.4798 29.9375C89.8861 30.4115 90.196 30.987 90.4095 31.6641C90.6282 32.3359 90.7376 33.099 90.7376 33.9531ZM89.2454 34.6719V33.9375C89.2454 33.2604 89.1751 32.6615 89.0345 32.1406C88.8991 31.6198 88.6986 31.1823 88.4329 30.8281C88.1673 30.474 87.8418 30.2057 87.4564 30.0234C87.0762 29.8411 86.6439 29.75 86.1595 29.75C85.6907 29.75 85.2663 29.8411 84.8861 30.0234C84.5111 30.2057 84.1881 30.474 83.9173 30.8281C83.6517 31.1823 83.446 31.6198 83.3001 32.1406C83.1543 32.6615 83.0814 33.2604 83.0814 33.9375V34.6719C83.0814 35.3542 83.1543 35.9583 83.3001 36.4844C83.446 37.0052 83.6543 37.4453 83.9251 37.8047C84.2012 38.1589 84.5267 38.4271 84.9017 38.6094C85.2819 38.7917 85.7064 38.8828 86.1751 38.8828C86.6647 38.8828 87.0996 38.7917 87.4798 38.6094C87.86 38.4271 88.1803 38.1589 88.4407 37.8047C88.7064 37.4453 88.9069 37.0052 89.0423 36.4844C89.1777 35.9583 89.2454 35.3542 89.2454 34.6719ZM98.4736 40H96.0986L96.1142 38.7734H98.4736C99.2861 38.7734 99.9631 38.6042 100.505 38.2656C101.046 37.9219 101.453 37.4427 101.724 36.8281C102 36.2083 102.138 35.4844 102.138 34.6562V33.9609C102.138 33.3099 102.059 32.7318 101.903 32.2266C101.747 31.7161 101.518 31.2865 101.216 30.9375C100.914 30.5833 100.544 30.3151 100.106 30.1328C99.6741 29.9505 99.1767 29.8594 98.6142 29.8594H96.0517V28.625H98.6142C99.359 28.625 100.039 28.75 100.653 29C101.268 29.2448 101.796 29.6016 102.239 30.0703C102.687 30.5339 103.031 31.0964 103.27 31.7578C103.51 32.4141 103.63 33.1536 103.63 33.9766V34.6562C103.63 35.4792 103.51 36.2214 103.27 36.8828C103.031 37.5391 102.684 38.099 102.231 38.5625C101.783 39.026 101.242 39.3828 100.606 39.6328C99.9762 39.8776 99.2652 40 98.4736 40ZM96.9032 28.625V40H95.3954V28.625H96.9032Z" fill="white"/>
<g clip-path="url(#clip0_470_5)">
<path d="M41.3775 26.0286C41.3974 25.8625 41.3591 25.6945 41.269 25.5534C40.4249 24.2326 40.5619 23.1064 40.6718 22.2016L40.6861 22.0837C40.723 21.7747 40.5578 21.4767 40.2763 21.3442C40.1791 21.2985 40.0738 21.2579 39.9632 21.2237C39.3062 21.0204 38.2949 21.0108 37.5167 21.4476C37.384 21.5222 37.2781 21.6368 37.2143 21.7751C37.0501 22.1308 36.9197 22.4625 36.8046 22.7551C36.3708 23.8578 36.259 23.9543 35.8815 23.9568C35.6448 23.9583 35.424 24.0755 35.2902 24.2706C34.6437 25.213 33.9053 26.0777 33.0939 26.8581C32.9888 26.2882 32.8414 25.7592 32.7042 25.267C32.3686 24.0631 32.1035 23.1121 32.582 22.1832C34.1328 19.1724 34.5884 16.6839 33.936 14.7867C33.5727 13.7302 32.8571 12.8651 31.8515 12.2533C32.5925 10.6268 34.007 10.2232 34.7126 10.2501C35.1114 10.2654 35.4471 9.95445 35.4623 9.5556C35.4775 9.15681 35.1666 8.8209 34.7679 8.80585C33.3112 8.7501 31.4649 9.62877 30.5366 11.6574C29.4357 11.3134 28.3309 11.3402 27.3039 11.7434C25.4272 12.4801 23.8268 14.433 22.5472 17.5476C22.1621 18.4849 21.3644 18.8544 20.2603 19.3657C19.359 19.7831 18.3546 20.2497 17.394 21.1276C16.7094 20.5664 15.9333 20.0995 15.0791 19.7532C15.8308 18.2042 17.2041 17.8156 17.896 17.8421C18.2948 17.8574 18.6305 17.5464 18.6457 17.1476C18.6609 16.7488 18.35 16.4129 17.9513 16.3979C17.5756 16.3835 17.1739 16.432 16.7688 16.5456C16.8516 15.7218 16.6966 14.8771 16.2992 14.1238C15.7669 13.1145 14.8732 12.3728 13.783 12.0355C13.4261 11.9251 13.0563 11.8617 12.6838 11.8471C12.4254 11.837 12.1812 11.9657 12.0437 12.1847C11.234 13.4733 11.1716 15.1092 11.8808 16.4542C12.3743 17.3899 13.1788 18.0949 14.1622 18.4617C13.9865 18.7204 13.8275 19.0044 13.6901 19.3151C9.13732 18.2728 4.46633 20.9112 3.06378 25.4445C1.59341 30.1969 4.26358 35.2596 9.01594 36.7299C10.7822 37.2764 12.627 37.272 14.3754 36.7218C14.5715 36.8915 14.7695 37.0578 14.9702 37.2187C16.7944 38.681 18.7656 39.7463 20.8291 40.3847C24.1481 41.4116 27.564 41.2803 30.7076 40.0048C33.9933 38.6716 36.9077 36.0964 39.1355 32.5575C39.8622 31.4033 41.0773 28.53 41.3775 26.0286ZM20.8677 20.6773C22.0555 20.1272 23.2836 19.5584 23.8841 18.097C25.0081 15.3611 26.3363 13.676 27.832 13.0889C28.7199 12.7404 29.6677 12.7933 30.6492 13.2469C31.6186 13.6947 32.2646 14.3709 32.5692 15.2568C33.0885 16.7669 32.6605 18.8746 31.2971 21.5214C30.559 22.9543 30.9418 24.3273 31.3119 25.6552C31.5193 26.3993 31.7325 27.1664 31.7817 27.9977C28.4154 30.6379 24.1267 31.9958 19.9642 31.6912C20.0926 31.3934 20.2055 31.0883 20.3015 30.7777C21.265 27.6635 20.4504 24.4162 18.4372 22.1336C19.2167 21.4432 20.0537 21.0544 20.8677 20.6773ZM13.159 15.7798C12.7585 15.0203 12.73 14.1203 13.0634 13.3424C13.162 13.3618 13.2595 13.3863 13.3557 13.4161C14.0771 13.6393 14.6684 14.13 15.0207 14.7979C15.4213 15.5574 15.4498 16.4575 15.1163 17.2353C15.0179 17.2159 14.9203 17.1913 14.8243 17.1616L14.8242 17.1616C14.1026 16.9384 13.5113 16.4477 13.159 15.7798ZM9.44313 35.3492C5.45204 34.1144 3.20968 29.8628 4.44452 25.8717C5.67935 21.8805 9.93088 19.6382 13.922 20.873C17.9131 22.1078 20.1556 26.3594 18.9207 30.3505C18.7976 30.7484 18.6422 31.1356 18.457 31.5066C17.9952 31.4264 17.5367 31.3245 17.0828 31.2008C17.3084 30.8067 17.4916 30.3893 17.6275 29.9504C17.868 29.1729 17.9532 28.3676 17.8808 27.557C17.8452 27.1597 17.4944 26.8661 17.0966 26.9016C16.6991 26.9372 16.4056 27.2883 16.4412 27.6858C16.4969 28.3081 16.4314 28.9262 16.2467 29.5232C16.1124 29.9573 15.919 30.3647 15.6709 30.7404C14.7026 30.3711 13.7636 29.9017 12.8695 29.3388C12.6874 29.2242 12.4635 29.1967 12.259 29.2638C11.5106 29.5096 10.7226 29.8662 10.0309 30.8033C9.85259 31.0449 9.84217 31.3714 10.0047 31.6239C10.9433 33.0815 11.9889 34.3946 13.127 35.5499C11.9081 35.7894 10.6538 35.7238 9.44313 35.3492ZM37.9123 31.7876C33.8311 38.2704 27.6046 40.9682 21.2563 39.0041C17.5503 37.8575 14.1084 35.1277 11.5171 31.2918C11.8013 31.0203 12.0971 30.8644 12.3996 30.7468C13.597 31.4677 14.8652 32.0375 16.1744 32.4426C19.8795 33.5889 23.8427 33.4316 27.6356 31.9877C29.5639 31.2536 31.3622 30.2066 32.9421 28.9174C32.9604 28.904 32.978 28.8898 32.9948 28.8747C34.2451 27.8471 35.357 26.667 36.2851 25.3694C37.4033 25.1819 37.7822 24.2186 38.1497 23.2842C38.2337 23.0706 38.3199 22.8516 38.4187 22.6229C38.6435 22.5468 38.9194 22.5168 39.1801 22.5382C39.0925 23.4729 39.1017 24.7103 39.9102 26.1005C39.6008 28.2335 38.5699 30.7431 37.9123 31.7876Z" fill="white"/>
<path d="M30.7428 14.8326C30.4369 14.5767 29.981 14.6168 29.7247 14.9228C29.4685 15.2287 29.5088 15.6845 29.8149 15.9408C30.252 16.3067 30.0604 17.9079 28.8486 20.2603C28.6659 20.6151 28.8053 21.0509 29.1602 21.2337C29.1988 21.2536 29.2383 21.2696 29.2783 21.282C29.6067 21.3836 29.9707 21.2385 30.1336 20.9223C31.2173 18.8187 32.2025 16.0547 30.7428 14.8326Z" fill="white"/>
<path d="M29.1925 36.0043C29.0582 35.6284 28.6437 35.4331 28.2678 35.5676C28.2675 35.5676 28.2639 35.5689 28.2636 35.569C27.8865 35.699 27.6877 36.1095 27.8174 36.4867C27.8952 36.7131 28.075 36.8757 28.2878 36.9416C28.4296 36.9854 28.5862 36.9864 28.737 36.9345L28.7564 36.9278C29.1322 36.7933 29.3269 36.3801 29.1925 36.0043Z" fill="white"/>
<path d="M27.2629 36.6304C27.1941 36.2373 26.8198 35.9742 26.4266 36.0428C23.6897 36.5204 21.711 35.8558 21.682 35.8454C21.3065 35.7148 20.8944 35.9113 20.7618 36.2871C20.629 36.6634 20.8265 37.0762 21.2029 37.209C21.2133 37.2127 21.2501 37.2254 21.3117 37.2445C21.8051 37.3971 23.8863 37.9532 26.6751 37.4665C27.0683 37.398 27.3314 37.0236 27.2629 36.6304Z" fill="white"/>
<path d="M17.2014 25.2359L17.1858 25.2061C16.9986 24.8537 16.5612 24.7195 16.2086 24.9066C15.8561 25.0938 15.722 25.5313 15.9092 25.8838L15.9194 25.9033C16.0122 26.0816 16.1689 26.2049 16.3468 26.2599C16.5223 26.3142 16.7184 26.302 16.8941 26.2106C17.2481 26.0264 17.3857 25.5899 17.2014 25.2359Z" fill="white"/>
</g>
<defs>
<clipPath id="clip0_470_5">
<rect width="37" height="37" fill="white" transform="translate(10.9361) rotate(17.1917)"/>
</clipPath>
</defs>
</svg>
