<svg width="16" height="13" viewBox="0 0 16 13" fill="none" xmlns="http://www.w3.org/2000/svg">
<path d="M5.03049 13C11.0668 13 14.3679 7.99918 14.3679 3.66292C14.3679 3.52084 14.365 3.37948 14.3585 3.23868C14.9992 2.77551 15.5563 2.19736 15.9956 1.53954C15.4076 1.80078 14.7749 1.97669 14.111 2.05601C14.7885 1.64978 15.3089 1.00687 15.5543 0.240624C14.9201 0.616654 14.2178 0.889899 13.4705 1.03725C12.8714 0.39944 12.0185 0.000488281 11.0749 0.000488281C9.26231 0.000488281 7.79251 1.47023 7.79251 3.28179C7.79251 3.53939 7.82144 3.78972 7.87747 4.03003C5.15019 3.89305 2.73165 2.58704 1.11322 0.601554C0.831046 1.08637 0.668585 1.64996 0.668585 2.25085C0.668585 3.38931 1.24802 4.39442 2.1291 4.98257C1.59078 4.96602 1.08502 4.81793 0.642751 4.57197C0.642023 4.58562 0.642023 4.59944 0.642023 4.61382C0.642023 6.20326 1.77343 7.53019 3.27488 7.8309C2.99926 7.90604 2.70927 7.94642 2.40982 7.94642C2.19842 7.94642 1.99284 7.92532 1.7929 7.8873C2.2106 9.19094 3.42224 10.1398 4.85875 10.1666C3.73534 11.0469 2.32031 11.5714 0.782835 11.5714C0.51813 11.5714 0.256882 11.5563 0 11.5259C1.45233 12.4566 3.17682 13 5.03049 13Z" fill="#CCCCCC"/>
</svg>
